<svg width="33" height="33" viewBox="0 0 33 33" fill="none" xmlns="http://www.w3.org/2000/svg">
<path d="M30.74 0H1.28083C0.572375 0 3.8147e-06 0.572371 3.8147e-06 1.28083V30.7399C3.8147e-06 31.4484 0.572375 32.0208 1.28083 32.0208H30.74C31.4484 32.0208 32.0208 31.4484 32.0208 30.7399V1.28083C32.0208 0.572371 31.4484 0 30.74 0ZM27.0415 9.34606H24.4839C22.4786 9.34606 22.0903 10.2987 22.0903 11.6996V14.7856H26.8774L26.253 19.6167H22.0903V32.0208H17.0991V19.6207H12.9244V14.7856H17.0991V11.2233C17.0991 7.0886 19.6247 4.83514 23.3151 4.83514C25.0843 4.83514 26.6013 4.96722 27.0456 5.02726V9.34606H27.0415Z" fill="#EFEBEA"/>
</svg>
